<?xml version="1.0" encoding="utf-8" standalone="no"?>
<!DOCTYPE svg PUBLIC "-//W3C//DTD SVG 1.1//EN"
  "http://www.w3.org/Graphics/SVG/1.1/DTD/svg11.dtd">
<!-- Created with matplotlib (http://matplotlib.org/) -->
<svg height="432pt" version="1.1" viewBox="0 0 576 432" width="576pt" xmlns="http://www.w3.org/2000/svg" xmlns:xlink="http://www.w3.org/1999/xlink">
 <defs>
  <style type="text/css">
*{stroke-linecap:butt;stroke-linejoin:round;}
  </style>
 </defs>
 <g id="figure_1">
  <g id="patch_1">
   <path d="
M0 432
L576 432
L576 0
L0 0
z
" style="fill:#ffffff;"/>
  </g>
  <g id="axes_1">
   <g id="LineCollection_1">
    <defs>
     <path d="
M295.2 -216
L295.2 -100.8" id="C0_0_a45486e4b4"/>
     <path d="
M295.2 -216
L295.2 -331.2" id="C0_1_a063fbc891"/>
    </defs>
    <g clip-path="url(#p7ff5b81e1d)">
     <use style="fill:none;stroke:#000000;" x="0.0" xlink:href="#C0_0_a45486e4b4" y="432.0"/>
    </g>
    <g clip-path="url(#p7ff5b81e1d)">
     <use style="fill:none;stroke:#000000;" x="0.0" xlink:href="#C0_1_a063fbc891" y="432.0"/>
    </g>
   </g>
   <g id="PathCollection_1">
    <defs>
     <path d="
M0 1.11803
C0.296506 1.11803 0.580908 1.00023 0.790569 0.790569
C1.00023 0.580908 1.11803 0.296506 1.11803 0
C1.11803 -0.296506 1.00023 -0.580908 0.790569 -0.790569
C0.580908 -1.00023 0.296506 -1.11803 0 -1.11803
C-0.296506 -1.11803 -0.580908 -1.00023 -0.790569 -0.790569
C-1.00023 -0.580908 -1.11803 -0.296506 -1.11803 0
C-1.11803 0.296506 -1.00023 0.580908 -0.790569 0.790569
C-0.580908 1.00023 -0.296506 1.11803 0 1.11803
z
" id="C1_0_af07e0942b"/>
    </defs>
    <g clip-path="url(#p7ff5b81e1d)">
     <use style="fill:#ff0000;stroke:#000000;" x="295.2" xlink:href="#C1_0_af07e0942b" y="216.0"/>
    </g>
    <g clip-path="url(#p7ff5b81e1d)">
     <use style="fill:#ff0000;stroke:#000000;" x="295.2" xlink:href="#C1_0_af07e0942b" y="331.2"/>
    </g>
    <g clip-path="url(#p7ff5b81e1d)">
     <use style="fill:#ff0000;stroke:#000000;" x="295.2" xlink:href="#C1_0_af07e0942b" y="100.8"/>
    </g>
   </g>
  </g>
 </g>
 <defs>
  <clipPath id="p7ff5b81e1d">
   <rect height="345.6" width="446.4" x="72.0" y="43.2"/>
  </clipPath>
 </defs>
</svg>
